<svg width="44" height="64" viewBox="0 0 44 64" fill="none" xmlns="http://www.w3.org/2000/svg">
<path d="M20.94 63.9C16.68 63.9 12.69 63.03 8.97 61.29C5.31 59.55 2.52 57.21 0.6 54.27L5.64 47.07C7.68 49.53 9.96 51.42 12.48 52.74C15.06 54.06 17.76 54.72 20.58 54.72C24.24 54.72 27.12 53.55 29.22 51.21C31.32 48.87 32.37 45.66 32.37 41.58C32.37 37.74 31.41 34.74 29.49 32.58C27.63 30.36 25.08 29.25 21.84 29.25C19.86 29.25 17.97 29.79 16.17 30.87C14.37 31.89 12.99 33.3 12.03 35.1H2.58L5.64 -4.29153e-06H41.82V9.09H15.81L14.46 24.39C15.42 23.31 16.89 22.44 18.87 21.78C20.85 21.06 22.83 20.7 24.81 20.7C28.59 20.7 31.92 21.57 34.8 23.31C37.68 24.99 39.9 27.39 41.46 30.51C43.08 33.63 43.89 37.26 43.89 41.4C43.89 45.9 42.93 49.86 41.01 53.28C39.15 56.64 36.48 59.25 33 61.11C29.52 62.97 25.5 63.9 20.94 63.9Z" fill="white"/>
</svg>
