<svg width="151" height="168" viewBox="0 0 151 168" fill="none" xmlns="http://www.w3.org/2000/svg">
<path d="M124.419 21.2503C123.752 21.2503 123.085 21.0837 122.502 20.7503C106.502 12.5003 92.6686 9.00033 76.0852 9.00033C59.5852 9.00033 43.9186 12.917 29.6686 20.7503C27.6686 21.8337 25.1686 21.0837 24.0019 19.0837C22.9186 17.0837 23.6686 14.5003 25.6686 13.417C41.1686 5.00033 58.1686 0.666992 76.0852 0.666992C93.8352 0.666992 109.335 4.58366 126.335 13.3337C128.419 14.417 129.169 16.917 128.085 18.917C127.335 20.417 125.919 21.2503 124.419 21.2503ZM5.16858 65.0003C4.33524 65.0003 3.50191 64.7503 2.75191 64.2503C0.835243 62.917 0.418575 60.3337 1.75191 58.417C10.0019 46.7503 20.5019 37.5837 33.0019 31.167C59.1686 17.667 92.6686 17.5837 118.919 31.0837C131.419 37.5003 141.919 46.5837 150.169 58.167C151.502 60.0003 151.085 62.667 149.169 64.0003C147.252 65.3337 144.669 64.917 143.335 63.0003C135.835 52.5003 126.335 44.2503 115.085 38.5003C91.1686 26.2503 60.5852 26.2503 36.7519 38.5837C25.4186 44.417 15.9186 52.7503 8.41858 63.2503C7.75191 64.417 6.50191 65.0003 5.16858 65.0003ZM57.2519 165.584C56.1686 165.584 55.0852 165.167 54.3352 164.334C47.0852 157.084 43.1686 152.417 37.5852 142.334C31.8352 132.084 28.8352 119.584 28.8352 106.167C28.8352 81.417 50.0019 61.2503 76.0019 61.2503C102.002 61.2503 123.169 81.417 123.169 106.167C123.169 108.5 121.335 110.334 119.002 110.334C116.669 110.334 114.835 108.5 114.835 106.167C114.835 86.0003 97.4186 69.5837 76.0019 69.5837C54.5852 69.5837 37.1686 86.0003 37.1686 106.167C37.1686 118.167 39.8352 129.25 44.9186 138.25C50.2519 147.834 53.9186 151.917 60.3352 158.417C61.9186 160.084 61.9186 162.667 60.3352 164.334C59.4186 165.167 58.3352 165.584 57.2519 165.584ZM117.002 150.167C107.085 150.167 98.3352 147.667 91.1686 142.75C78.7519 134.334 71.3352 120.667 71.3352 106.167C71.3352 103.834 73.1686 102 75.5019 102C77.8352 102 79.6686 103.834 79.6686 106.167C79.6686 117.917 85.6686 129 95.8352 135.834C101.752 139.834 108.669 141.75 117.002 141.75C119.002 141.75 122.335 141.5 125.669 140.917C127.919 140.5 130.085 142 130.502 144.334C130.919 146.584 129.419 148.75 127.085 149.167C122.335 150.084 118.169 150.167 117.002 150.167ZM100.252 167.334C99.9186 167.334 99.5019 167.25 99.1686 167.167C85.9186 163.5 77.2519 158.584 68.1686 149.667C56.5019 138.084 50.0852 122.667 50.0852 106.167C50.0852 92.667 61.5852 81.667 75.7519 81.667C89.9186 81.667 101.419 92.667 101.419 106.167C101.419 115.084 109.169 122.334 118.752 122.334C128.335 122.334 136.085 115.084 136.085 106.167C136.085 74.7503 109.002 49.2503 75.6686 49.2503C52.0019 49.2503 30.3352 62.417 20.5852 82.8337C17.3352 89.5837 15.6686 97.5003 15.6686 106.167C15.6686 112.667 16.2519 122.917 21.2519 136.25C22.0852 138.417 21.0019 140.834 18.8352 141.584C16.6686 142.417 14.2519 141.25 13.5019 139.167C9.41858 128.25 7.41858 117.417 7.41858 106.167C7.41858 96.167 9.33524 87.0837 13.0852 79.167C24.1686 55.917 48.7519 40.8337 75.6686 40.8337C113.585 40.8337 144.419 70.0837 144.419 106.084C144.419 119.584 132.919 130.584 118.752 130.584C104.585 130.584 93.0852 119.584 93.0852 106.084C93.0852 97.167 85.3352 89.917 75.7519 89.917C66.1686 89.917 58.4186 97.167 58.4186 106.084C58.4186 120.334 63.9186 133.667 74.0019 143.667C81.9186 151.5 89.5019 155.834 101.252 159.084C103.502 159.667 104.752 162 104.169 164.167C103.752 166.084 102.002 167.334 100.252 167.334Z" fill="#ADADAD"/>
</svg>
