<svg width="196" height="196" viewBox="0 0 196 196" fill="none" xmlns="http://www.w3.org/2000/svg">
<circle cx="98" cy="98" r="98" fill="#FFF4F0"/>
<circle cx="97.9996" cy="98" r="78.4" fill="#FFE8E0"/>
<circle cx="98.0002" cy="98" r="58.8" fill="#FF4201"/>
<g clip-path="url(#clip0_120_877)">
<path d="M133.933 98L125.962 88.886L127.073 76.832L115.28 74.1533L109.106 63.7L97.9997 68.4693L86.8931 63.7L80.7191 74.1206L68.9264 76.7666L70.0371 88.8533L62.0664 98L70.0371 107.114L68.9264 119.201L80.7191 121.879L86.8931 132.3L97.9997 127.498L109.106 132.267L115.28 121.847L127.073 119.168L125.962 107.114L133.933 98ZM89.4411 111.099L81.6664 103.259C80.3924 101.985 80.3924 99.9273 81.6664 98.6533L81.8951 98.4246C83.1691 97.1507 85.2597 97.1507 86.5337 98.4246L91.7931 103.717L108.616 86.8606C109.89 85.5866 111.981 85.5866 113.255 86.8606L113.484 87.0893C114.758 88.3633 114.758 90.4213 113.484 91.6953L94.1451 111.099C92.8057 112.373 90.7477 112.373 89.4411 111.099Z" fill="white"/>
</g>
<defs>
<clipPath id="clip0_120_877">
<rect width="78.4" height="78.4" fill="white" transform="translate(58.7998 58.8)"/>
</clipPath>
</defs>
</svg>
